# xmcd
#
# Track frame offsets:
# 150
# 10606
# 20837
# 32809
# 44979
# 59398
# 75831
# 89686
# 102155
# 116132
# 131157
# 150899
# 161389
# 173412
# 183735
# 195006
# 208433
# 221933
#
# Disc length: 3120 seconds
#
#
# Revision: 2
# Processed by: cddbd v1.5.1PL2 Copyright (c) Steve Scherf et al.
# Submitted via: FreeRIP 2.942 
#
DISCID=f50c2e12
DTITLE=Various Artist - Treasures 18 Priceless Gems
DYEAR=1900
DGENRE=
TTITLE0=Neil Sedaka - Oh Carol
TTITLE1=Connie Francis - Stupid Cupid
TTITLE2=Englebert Humperdinck - Ten Guitars
TTITLE3=Marie Osmond - Paper Roses
TTITLE4=Abba - Hasta Manana
TTITLE5=The Righteous Brothers - Unchained Melody
TTITLE6=Patti Rage - Tennessee Waltz
TTITLE7=Patsy Cline - Crazy
TTITLE8=Tom Jones - Green Green Grass Of Home
TTITLE9=Cat Stevens - Morning Has Broken
TTITLE10=Jerry Lee Lewis - When A Man Loves A Woman
TTITLE11=Louis Armstrong - What A Wonderful World
TTITLE12=The Platters - Only You
TTITLE13=Pat Boone - Love Letters In The Sand
TTITLE14=Roger Miller - King Of The Road
TTITLE15=Kenny Rogers - Ruby Dont Take Your Love To Town
TTITLE16=The Troggs - Love Is All Around
TTITLE17=The Mammas and The Papas - California Dreamin'
EXTD=
EXTT0=
EXTT1=
EXTT2=
EXTT3=
EXTT4=
EXTT5=
EXTT6=
EXTT7=
EXTT8=
EXTT9=
EXTT10=
EXTT11=
EXTT12=
EXTT13=
EXTT14=
EXTT15=
EXTT16=
EXTT17=
PLAYORDER=
